<svg xmlns="http://www.w3.org/2000/svg" version="1.1" viewBox="2.4991090297698975 1.6195820569992065 490.2438659667969 448.65045166015625" width="494.00" height="452.00">
<path fill="#f1c427" d="&#10;  M 312.80 29.76&#10;  L 122.07 30.45&#10;  A 0.63 0.63 0.0 0 0 121.44 31.08&#10;  Q 121.54 67.14 121.48 102.50&#10;  C 121.47 106.78 121.28 110.99 119.16 114.60&#10;  C 116.16 119.71 111.19 121.63 105.33 121.63&#10;  Q 70.20 121.61 36.85 121.54&#10;  Q 33.59 121.53 30.21 121.80&#10;  Q 29.66 121.84 29.66 122.39&#10;  L 29.18 218.73&#10;  Q 29.17 220.72 31.16 220.73&#10;  Q 46.37 220.78 64.65 220.66&#10;  C 70.53 220.62 75.09 222.20 79.11 226.36&#10;  Q 81.49 228.82 82.17 232.11&#10;  C 84.46 243.01 75.18 248.18 65.51 248.39&#10;  Q 38.97 248.96 17.75 248.52&#10;  C 12.22 248.41 5.49 245.04 3.84 239.45&#10;  Q 2.52 234.96 2.54 228.76&#10;  Q 2.58 220.35 2.62 211.00&#10;  Q 2.81 163.71 2.50 111.54&#10;  Q 2.47 105.08 3.45 102.63&#10;  C 5.88 96.59 12.00 94.34 18.35 94.35&#10;  Q 56.53 94.40 89.32 94.24&#10;  Q 90.93 94.23 92.58 93.97&#10;  A 1.40 1.40 0.0 0 0 93.76 92.43&#10;  C 93.38 89.13 93.67 85.84 93.68 82.50&#10;  Q 93.79 52.29 93.35 20.93&#10;  Q 93.27 14.84 94.64 11.29&#10;  C 96.92 5.40 101.26 1.63 107.74 1.64&#10;  Q 207.77 1.74 319.75 1.66&#10;  C 323.36 1.65 327.33 1.35 330.66 2.55&#10;  Q 341.38 6.41 341.41 18.01&#10;  Q 341.52 54.63 341.23 92.36&#10;  A 1.21 1.20 0.5 0 0 342.43 93.57&#10;  Q 411.26 93.79 478.75 93.89&#10;  C 484.79 93.90 491.76 97.41 492.18 104.03&#10;  C 492.33 106.28 493.19 108.37 492.44 110.62&#10;  Q 491.26 114.15 489.26 116.30&#10;  Q 482.61 123.44 475.41 130.75&#10;  Q 468.21 138.05 461.68 145.32&#10;  Q 447.63 160.96 435.53 173.55&#10;  Q 429.92 179.39 424.99 184.85&#10;  C 422.30 187.83 419.17 190.30 416.65 193.36&#10;  Q 413.56 197.13 410.13 200.57&#10;  C 404.43 206.28 399.42 212.90 394.13 218.12&#10;  C 387.03 225.11 380.94 232.67 374.38 239.63&#10;  Q 362.23 252.55 352.05 264.14&#10;  Q 350.97 265.37 344.62 271.96&#10;  Q 341.01 275.70 338.07 279.68&#10;  Q 335.92 282.59 331.39 286.98&#10;  C 328.03 290.24 325.30 294.05 321.80 297.03&#10;  C 319.31 299.15 315.69 297.22 312.94 296.55&#10;  Q 312.33 296.41 311.74 296.62&#10;  C 305.82 298.79 300.93 298.69 294.82 298.70&#10;  Q 128.33 299.03 18.63 298.24&#10;  C 13.61 298.20 7.73 295.79 5.31 290.96&#10;  C 3.99 288.33 4.30 284.52 4.44 281.66&#10;  C 4.56 279.15 6.19 276.26 8.00 274.57&#10;  Q 12.49 270.38 18.99 270.40&#10;  Q 71.77 270.56 129.50 270.18&#10;  Q 136.82 270.13 144.00 270.11&#10;  C 196.46 270.02 249.55 270.10 302.12 270.47&#10;  Q 306.55 270.50 308.75 269.46&#10;  Q 311.93 267.97 314.21 265.18&#10;  Q 319.55 258.66 325.49 252.32&#10;  C 333.92 243.33 341.27 235.08 349.29 226.62&#10;  Q 353.76 221.90 357.76 217.43&#10;  C 361.48 213.29 365.43 209.55 369.16 205.45&#10;  Q 383.75 189.39 398.24 174.04&#10;  C 402.51 169.53 406.43 164.73 410.71 160.30&#10;  Q 418.98 151.74 427.29 142.38&#10;  C 433.10 135.86 439.49 130.11 445.05 123.24&#10;  A 0.70 0.70 0.0 0 0 444.55 122.10&#10;  Q 443.27 122.01 441.83 122.03&#10;  Q 392.02 122.78 334.50 122.11&#10;  Q 328.45 122.04 323.35 120.51&#10;  C 319.38 119.32 314.67 115.37 313.83 110.78&#10;  Q 313.44 108.63 313.45 106.36&#10;  Q 313.50 70.16 313.46 30.41&#10;  A 0.65 0.65 0.0 0 0 312.80 29.76&#10;  Z"/>
<path fill="#f1c427" d="&#10;  M 242.61 79.55&#10;  Q 238.09 69.46 244.98 62.42&#10;  C 252.39 54.86 265.99 56.17 271.76 65.12&#10;  Q 274.21 68.90 273.73 74.43&#10;  C 273.13 81.46 267.80 87.68 260.90 89.07&#10;  C 252.33 90.80 246.21 87.58 242.61 79.55&#10;  Z"/>
<path fill="#f1c427" d="&#10;  M 117.70 229.58&#10;  C 121.04 222.76 128.52 220.76 135.47 220.76&#10;  Q 194.07 220.75 253.65 220.76&#10;  C 259.28 220.76 264.63 225.58 266.42 230.39&#10;  Q 268.22 235.21 265.20 240.38&#10;  Q 262.39 245.22 257.59 247.55&#10;  Q 255.21 248.71 249.53 248.71&#10;  Q 188.78 248.70 133.01 248.65&#10;  Q 127.59 248.65 122.40 245.39&#10;  C 117.15 242.09 114.86 235.37 117.70 229.58&#10;  Z"/>
<path fill="#2d2c2c" d="&#10;  M 215.33 368.57&#10;  A 2.32 2.32 0.0 0 0 213.41 371.54&#10;  Q 215.23 377.52 220.86 379.75&#10;  Q 227.27 382.28 233.10 384.75&#10;  C 238.54 387.06 243.75 390.04 245.81 396.19&#10;  C 247.42 401.00 248.47 405.88 246.98 410.78&#10;  C 245.39 415.98 244.20 419.49 239.39 422.60&#10;  Q 230.71 428.22 221.16 427.75&#10;  Q 211.32 427.26 202.50 423.36&#10;  C 200.37 422.41 197.55 421.52 199.07 418.37&#10;  Q 200.83 414.75 202.52 411.53&#10;  C 204.00 408.71 207.01 408.53 209.76 409.50&#10;  C 212.47 410.46 215.27 411.43 218.11 411.64&#10;  C 221.71 411.89 230.30 412.46 232.56 408.82&#10;  C 235.20 404.60 232.49 401.06 228.39 399.78&#10;  Q 218.24 396.59 210.48 392.67&#10;  Q 205.39 390.10 202.42 386.42&#10;  C 199.30 382.56 198.40 377.28 198.45 372.15&#10;  C 198.51 365.72 200.34 360.09 205.41 355.92&#10;  Q 209.15 352.84 215.79 351.41&#10;  Q 227.36 348.93 238.81 352.93&#10;  Q 242.43 354.20 245.72 357.13&#10;  Q 246.13 357.50 246.19 358.06&#10;  Q 246.85 364.93 244.58 371.58&#10;  A 0.64 0.63 37.4 0 1 243.45 371.73&#10;  C 240.87 367.91 237.31 368.51 233.37 367.61&#10;  C 230.05 366.85 226.40 367.41 223.00 367.19&#10;  C 220.23 367.01 218.00 368.23 215.33 368.57&#10;  Z"/>
<path fill="#2d2c2c" d="&#10;  M 120.01 360.30&#10;  C 118.73 357.03 121.04 352.25 124.86 351.42&#10;  C 131.94 349.87 141.47 349.68 140.61 359.97&#10;  C 140.01 367.18 133.96 367.89 127.49 367.39&#10;  C 122.33 366.99 121.53 364.20 120.01 360.30&#10;  Z"/>
<path fill="#2d2c2c" d="&#10;  M 70.85 380.96&#10;  C 72.29 379.49 73.90 377.74 75.85 377.00&#10;  Q 83.00 374.26 89.14 374.60&#10;  Q 91.63 374.74 94.67 375.53&#10;  C 98.67 376.57 101.73 379.69 104.51 382.47&#10;  A 1.95 1.90 -73.2 0 1 105.02 383.45&#10;  C 106.00 388.80 105.72 394.11 106.10 399.52&#10;  C 106.43 404.15 105.97 408.61 105.84 413.16&#10;  Q 105.67 419.09 105.74 425.70&#10;  A 0.93 0.93 0.0 0 1 104.82 426.64&#10;  L 95.18 426.68&#10;  A 3.97 3.97 0.0 0 1 91.20 422.67&#10;  Q 91.31 410.43 91.12 399.51&#10;  C 91.04 394.83 90.77 389.54 85.04 388.48&#10;  C 79.41 387.43 75.14 390.27 71.59 394.62&#10;  C 69.61 397.07 69.84 399.40 69.54 402.29&#10;  Q 69.33 404.28 69.36 406.12&#10;  Q 69.50 415.69 69.23 425.78&#10;  A 0.57 0.57 0.0 0 1 68.66 426.33&#10;  L 55.13 426.26&#10;  A 0.63 0.63 0.0 0 1 54.50 425.63&#10;  L 54.43 352.04&#10;  Q 54.42 351.51 54.96 351.51&#10;  L 68.71 351.49&#10;  Q 69.12 351.48 69.13 351.89&#10;  Q 69.56 367.22 69.20 380.27&#10;  Q 69.14 382.71 70.85 380.96&#10;  Z"/>
<path fill="#f1c427" d="&#10;  M 268.99 380.71&#10;  C 270.76 379.01 272.60 377.12 274.75 375.94&#10;  Q 280.67 372.70 287.36 373.36&#10;  C 291.25 373.75 294.03 375.81 297.00 378.02&#10;  C 300.29 380.46 303.47 385.08 304.05 389.46&#10;  C 304.30 391.37 304.72 393.18 304.74 395.12&#10;  Q 304.86 410.16 304.61 423.48&#10;  Q 304.57 425.57 302.47 425.54&#10;  L 295.17 425.42&#10;  Q 294.41 425.41 294.41 424.65&#10;  Q 294.34 411.87 294.43 397.50&#10;  C 294.46 392.36 294.37 383.96 287.49 382.65&#10;  C 282.90 381.77 278.71 381.94 275.05 385.24&#10;  Q 269.01 390.68 268.81 398.43&#10;  Q 268.46 412.03 268.49 425.49&#10;  A 0.62 0.61 -3.7 0 1 267.95 426.10&#10;  Q 263.22 426.78 258.43 425.87&#10;  Q 257.68 425.72 257.68 424.96&#10;  L 257.98 354.85&#10;  A 0.95 0.95 0.0 0 1 258.89 353.91&#10;  L 267.14 353.58&#10;  Q 268.37 353.53 268.38 354.76&#10;  L 268.39 380.46&#10;  Q 268.39 381.30 268.99 380.71&#10;  Z"/>
<path fill="#2d2c2c" d="&#10;  M 27.28 389.34&#10;  Q 27.23 389.62 27.83 390.17&#10;  Q 32.08 394.11 37.53 395.72&#10;  C 40.02 396.45 43.01 399.33 44.54 401.14&#10;  Q 47.50 404.65 48.40 410.43&#10;  Q 49.06 414.72 46.59 418.99&#10;  Q 43.75 423.92 39.65 425.91&#10;  C 29.80 430.72 18.61 427.38 9.87 421.98&#10;  Q 9.31 421.63 9.53 421.01&#10;  L 12.76 412.03&#10;  Q 13.02 411.32 13.77 411.45&#10;  Q 20.21 412.60 25.78 414.63&#10;  C 28.21 415.52 34.30 416.26 34.79 412.46&#10;  C 35.02 410.64 33.18 409.10 31.70 408.50&#10;  C 22.38 404.69 13.79 400.92 12.75 389.66&#10;  C 12.33 385.22 13.90 380.76 17.59 378.20&#10;  C 22.02 375.13 25.81 374.81 30.76 373.83&#10;  C 33.98 373.19 37.25 374.38 40.45 375.01&#10;  Q 42.16 375.35 45.73 377.88&#10;  Q 46.15 378.18 46.08 378.69&#10;  Q 45.52 382.93 44.10 386.56&#10;  C 42.85 389.73 40.15 388.38 37.73 388.55&#10;  Q 32.59 388.91 28.36 388.53&#10;  A 1.01 1.01 0.0 0 0 27.28 389.34&#10;  Z"/>
<path fill="#f1c427" d="&#10;  M 396.96 424.19&#10;  Q 395.28 423.32 395.27 425.21&#10;  L 395.15 448.82&#10;  Q 395.15 449.53 394.43 449.51&#10;  L 386.41 449.28&#10;  A 0.69 0.69 0.0 0 1 385.74 448.59&#10;  Q 385.73 414.74 385.62 382.19&#10;  Q 385.61 379.77 385.82 377.18&#10;  Q 385.86 376.60 386.43 376.74&#10;  Q 389.86 377.61 393.31 379.75&#10;  Q 394.96 380.78 396.39 379.60&#10;  C 402.63 374.40 411.07 371.87 418.73 375.25&#10;  C 428.10 379.38 435.00 387.04 435.82 397.21&#10;  C 436.45 404.99 435.65 411.59 430.79 418.04&#10;  Q 426.72 423.46 419.46 425.97&#10;  Q 408.00 429.94 396.96 424.19&#10;  Z&#10;  M 395.78 398.20&#10;  Q 395.23 403.21 395.84 406.39&#10;  Q 397.30 414.00 404.07 417.35&#10;  C 411.77 421.16 417.71 417.22 422.90 411.43&#10;  Q 425.28 408.76 425.87 404.92&#10;  Q 427.84 392.09 416.94 384.24&#10;  C 412.61 381.12 406.04 382.69 402.28 385.63&#10;  Q 396.67 390.01 395.78 398.20&#10;  Z"/>
<path fill="#f1c427" d="&#10;  M 320.02 387.84&#10;  C 323.50 381.90 328.66 377.35 335.47 375.33&#10;  Q 339.69 374.08 342.78 373.90&#10;  C 347.00 373.67 353.46 375.66 357.35 377.82&#10;  Q 367.33 383.38 369.19 395.19&#10;  Q 370.04 400.63 369.20 406.68&#10;  Q 367.40 419.71 356.31 424.95&#10;  C 351.57 427.19 344.28 428.95 339.06 427.37&#10;  C 337.00 426.74 335.06 426.29 333.08 425.34&#10;  Q 323.27 420.61 318.60 410.57&#10;  C 315.49 403.85 316.41 393.99 320.02 387.84&#10;  Z&#10;  M 343.9269 419.1838&#10;  A 18.22 16.39 88.5 0 0 359.8344 400.5410&#10;  A 18.22 16.39 88.5 0 0 342.9731 382.7562&#10;  A 18.22 16.39 88.5 0 0 327.0656 401.3990&#10;  A 18.22 16.39 88.5 0 0 343.9269 419.1838&#10;  Z"/>
<path fill="#2d2c2c" d="&#10;  M 161.12 377.48&#10;  C 163.66 376.19 166.70 374.86 169.47 374.66&#10;  Q 175.19 374.23 181.36 376.40&#10;  C 189.20 379.15 192.63 384.19 194.92 391.63&#10;  Q 195.85 394.66 195.76 397.46&#10;  C 195.65 401.10 196.24 404.79 195.01 408.33&#10;  Q 193.45 412.79 191.54 416.23&#10;  C 187.49 423.53 180.16 426.92 171.94 428.05&#10;  Q 167.31 428.69 162.61 426.55&#10;  A 0.98 0.98 0.0 0 0 161.22 427.44&#10;  L 161.14 448.82&#10;  A 1.46 1.46 0.0 0 1 159.68 450.27&#10;  L 144.95 450.23&#10;  A 0.61 0.61 0.0 0 1 144.34 449.62&#10;  Q 144.45 425.79 144.56 400.34&#10;  C 144.57 398.65 145.04 397.14 144.94 395.40&#10;  Q 144.52 388.34 144.70 382.11&#10;  Q 144.77 379.35 146.63 377.16&#10;  A 1.81 1.80 -76.7 0 1 147.58 376.57&#10;  Q 150.94 375.73 154.18 374.46&#10;  C 156.36 373.60 158.34 376.02 159.76 377.29&#10;  A 1.22 1.21 52.7 0 0 161.12 377.48&#10;  Z&#10;  M 160.16 399.47&#10;  Q 161.37 400.21 159.96 400.20&#10;  Q 158.49 400.20 158.58 401.66&#10;  Q 158.86 406.02 162.67 408.38&#10;  C 164.11 409.27 166.74 408.64 167.64 409.83&#10;  Q 168.10 410.45 167.34 410.39&#10;  L 164.32 410.17&#10;  Q 163.76 410.13 163.30 409.79&#10;  L 160.63 407.78&#10;  A 0.63 0.63 0.0 0 0 159.71 407.97&#10;  C 157.93 410.97 161.67 413.09 164.04 413.19&#10;  Q 164.51 413.21 164.86 413.54&#10;  C 167.42 415.92 172.79 415.00 174.90 413.07&#10;  C 178.65 409.64 181.08 404.07 180.18 399.02&#10;  Q 179.25 393.84 175.72 390.68&#10;  Q 172.80 388.07 168.95 388.33&#10;  Q 164.12 388.65 161.01 391.58&#10;  Q 160.47 392.09 160.42 392.84&#10;  Q 160.28 395.06 159.30 397.04&#10;  Q 158.99 397.67 159.23 398.32&#10;  Q 159.50 399.07 160.16 399.47&#10;  Z"/>
<path fill="#2d2c2c" d="&#10;  M 137.31 377.23&#10;  A 1.20 1.20 0.0 0 1 138.51 378.43&#10;  L 138.44 419.18&#10;  A 7.57 4.53 -89.9 0 1 133.90 426.75&#10;  L 126.00 426.73&#10;  A 7.57 4.53 -89.9 0 1 121.48 419.16&#10;  L 121.55 378.41&#10;  A 1.20 1.20 0.0 0 1 122.75 377.21&#10;  L 137.31 377.23&#10;  Z"/>
<path fill="#2d2c2c" d="&#10;  M 118.18 382.10&#10;  Q 119.94 381.53 118.51 382.70&#10;  Q 117.68 383.37 115.89 383.61&#10;  Q 115.24 383.70 115.77 383.32&#10;  Q 116.87 382.52 118.18 382.10&#10;  Z"/>
<ellipse fill="#2d2c2c" cx="0.00" cy="0.00" transform="translate(169.54,399.60) rotate(101.0)" rx="2.23" ry="1.65"/>
<path fill="#2d2c2c" d="&#10;  M 167.61 412.09&#10;  Q 168.12 411.58 168.24 412.30&#10;  Q 168.31 412.72 168.18 413.10&#10;  A 0.45 0.45 0.0 0 1 167.31 413.04&#10;  Q 167.20 412.51 167.61 412.09&#10;  Z"/>
</svg>