<?xml version="1.0" encoding="utf-8"?>
<!-- Generator: Adobe Illustrator 28.0.0, SVG Export Plug-In . SVG Version: 6.00 Build 0)  -->
<svg version="1.1" id="Layer_1" xmlns="http://www.w3.org/2000/svg" xmlns:xlink="http://www.w3.org/1999/xlink" x="0px" y="0px"
	 viewBox="0 0 64 64" style="enable-background:new 0 0 64 64;" xml:space="preserve">
<style type="text/css">
	.st0{fill:#59B6F8;}
	.st1{fill:#232F3E;}
	.st2{fill-rule:evenodd;clip-rule:evenodd;fill:#232F3E;}
</style>
<path class="st0" d="M34.694,38.0067c7.5467,0,13.6667-6.12,13.6667-13.6667s-6.12-13.6667-13.6667-13.6667
	s-13.6667,6.12-13.6667,13.6667S27.1473,38.0067,34.694,38.0067z"/>
<path class="st1" d="M55.0949,47.5402c-0.26-0.3467-6.4934-8.5333-14.4-8.5333h-12c-3.7734,0-4.56,2.16-4.6534,3.6666l-8.7-4.8333
	c0,0-0.0333-0.0133-0.0533-0.02c-0.0133,0-0.0267-0.02-0.0467-0.0267c-1.2533-0.5666-2.7333-0.62-3.96-0.1266
	c-1.0333,0.4133-1.8266,1.18-2.2333,2.1666c-1,2.44-0.0333,5.08,2.2933,6.32h0.0067l11.28,6.6334c0.6733,0.44,1.8933,0.84,2.66,0.88
	h10.7c2.6667,0.14,4.4933,0.7066,5.9133,1.8266c0.2334,0.18,0.42,0.42,0.5534,0.6867l0.3733,0.7533
	c0.16,0.32,0.4467,0.5667,0.7867,0.6734c0.1333,0.04,0.2666,0.06,0.4066,0.06c0.2134,0,0.4334-0.0534,0.6267-0.1534
	c4.3267-2.3,7.9333-5.1866,10.42-8.3533c0.3733-0.4733,0.38-1.14,0.02-1.6267h0.0067V47.5402z M44.5682,54.5135
	c-0.2733-0.42-0.62-0.7933-1.0133-1.1066c-2.4134-1.9134-5.26-2.2867-7.4667-2.4H25.3949c-0.3134-0.0267-1.0467-0.28-1.3667-0.48
	l-11.3333-6.6667c0,0-0.0267,0-0.0334-0.0133c-0.0133-0.0067-0.02-0.0134-0.0333-0.02c-1.3267-0.68-1.5067-2.0134-1.1133-2.9734
	c0.1333-0.32,0.3866-0.56,0.7533-0.7066c0.5533-0.22,1.26-0.1934,1.8533,0.0733l11.9267,6.6267
	c0.2,0.1133,0.42,0.1666,0.6467,0.1666h1.3333c0.06,0,0.12-0.0133,0.18-0.02c0.1533,0,0.3,0.02,0.4667,0.02l5.72,0.0867
	c0.7466,0,1.34-0.58,1.3533-1.3133c0.0133-0.7334-0.58-1.34-1.3133-1.3534l-5.74-0.0866c-2,0-2-0.7067-2-1.3334
	c0-0.6266,0-1.3333,2-1.3333h12c5.26,0,9.92,4.74,11.6066,6.6667c-1.98,2.28-4.62,4.3866-7.7266,6.18v-0.0134H44.5682z"/>
<path class="st2" d="M31.994,9.0068c-6.7933,0-12.3,5.5066-12.3,12.3001c0,6.7933,5.5067,12.3,12.3,12.3s12.3-5.5067,12.3-12.3
	C44.294,14.5134,38.7873,9.0068,31.994,9.0068z M17.0273,21.3068c0-8.2667,6.7-14.9667,14.9667-14.9667s14.9667,6.7,14.9667,14.9667
	c0,8.2666-6.7,14.9666-14.9667,14.9666S17.0273,29.5734,17.0273,21.3068z"/>
<path class="st1" d="M35.462,17.9602h-0.1467c-0.12-0.3467-0.28-0.6667-0.46-0.96h0.6067c0.7333,0,1.3333-0.6,1.3333-1.3334
	c0-0.7333-0.6-1.3333-1.3333-1.3333h-6.9267c-0.7333,0-1.3333,0.6-1.3333,1.3333c0,0.7334,0.6,1.3334,1.3333,1.3334h1.76
	c0.06,0.02,0.12,0.0466,0.1867,0.06c0.1533,0.0333,1.0733,0.24,1.74,0.9h-3.6867c-0.7333,0-1.3333,0.6-1.3333,1.3333
	c0,0.7333,0.6,1.3333,1.3333,1.3333h3.88c-0.3733,0.5267-0.9866,1.02-1.9866,1.02h-1.9c-0.5934,0-1.1134,0.3934-1.28,0.96
	c-0.1667,0.5667,0.0666,1.18,0.5666,1.5l6.3134,4.02c0.22,0.14,0.4733,0.2067,0.7133,0.2067c0.44,0,0.8733-0.22,1.1267-0.62
	c0.3933-0.62,0.2133-1.4467-0.4067-1.84l-3.0867-1.9667c1.6134-0.6933,2.5134-2.1466,2.9067-3.2866h0.0733
	c0.7334,0,1.3334-0.6,1.3334-1.3334c0-0.7333-0.6-1.3333-1.3334-1.3333L35.462,17.9602z"/>
</svg>
